<?xml version="1.0" encoding="utf-8"?>
<!-- Generator: Adobe Illustrator 23.0.0, SVG Export Plug-In . SVG Version: 6.00 Build 0)  -->
<svg version="1.1" id="Layer_2" xmlns="http://www.w3.org/2000/svg" xmlns:xlink="http://www.w3.org/1999/xlink" x="0px" y="0px"
	 viewBox="0 0 1000 1000" style="enable-background:new 0 0 1000 1000;" xml:space="preserve">
<style type="text/css">
	.st0{opacity:0.1;enable-background:new    ;}
	.st1{fill:#FF0000;}
</style>
<g id="_" class="st0">
	<path class="st1" d="M18.59,590.2l11.58-224.81c168.99,13.02,293.78,30.06,374.37,51.14C338.99,245.7,296.87,127.4,278.22,61.6
		L489.44,5c22.85,96.93,43.94,220.35,63.3,370.25c86.48-77.28,188.6-154.61,306.32-231.96l122.44,188.9
		c-112.41,73.84-226.03,133.44-340.87,178.77c73.02,35.62,181.14,105.01,324.33,208.19L823.33,889.81
		c-76.89-61.61-171.4-148.19-283.49-259.72c-35.19,156.19-70.33,277.51-105.46,363.94l-205.07-77.76
		c75.44-169.05,131.45-282.42,168.05-340.12C265.57,585.44,139.31,590.12,18.59,590.2z"/>
</g>
</svg>
